<svg width="136.833" height="136.834" xmlns="http://www.w3.org/2000/svg">
 <defs>
  <filter height="200%" width="200%" y="-50%" x="-50%" id="svg_49_blur">
   <feGaussianBlur stdDeviation="0" in="SourceGraphic"/>
  </filter>
 </defs>
 <g>
  <title>background</title>
  <rect fill="none" id="canvas_background" height="402" width="582" y="-1" x="-1"/>
 </g>
 <g>
  <title>Layer 1</title>
  <circle fill="#efc849" id="svg_5" r="63.333" cy="68.417" cx="68.417" class="st13"/>
  <path fill="#f5f5f5" id="svg_11" d="m43.68,30.156c-2.358,0 -4.271,1.913 -4.271,4.272l0,68.351c0,2.359 1.913,4.272 4.271,4.272l49.128,0c2.359,0 4.271,-1.913 4.271,-4.272l0,-52.84l-20.591,-19.783l-32.808,0z" class="st22"/>
  <path fill="#e1e1e1" id="svg_14" d="m97.08,49.939l-16.32,0c-2.359,0 -4.271,-1.913 -4.271,-4.272l0,-15.511l20.591,19.783z" class="st1"/>
  <path fill="#c9c9c8" id="svg_17" d="m91.07,55.772c0,0.736 -0.597,1.333 -1.334,1.333l-42.666,0c-0.736,0 -1.333,-0.597 -1.333,-1.333l0,0c0,-0.736 0.597,-1.333 1.333,-1.333l42.666,0c0.737,0 1.334,0.597 1.334,1.333l0,0z" class="st29"/>
  <path fill="#c9c9c8" id="svg_20" d="m91.07,62.772c0,0.736 -0.597,1.333 -1.334,1.333l-42.666,0c-0.736,0 -1.333,-0.597 -1.333,-1.333l0,0c0,-0.736 0.597,-1.333 1.333,-1.333l42.666,0c0.737,0 1.334,0.597 1.334,1.333l0,0z" class="st29"/>
  <path fill="#c9c9c8" id="svg_23" d="m91.07,69.439c0,0.736 -0.597,1.333 -1.334,1.333l-42.666,0c-0.736,0 -1.333,-0.597 -1.333,-1.333l0,0c0,-0.736 0.597,-1.333 1.333,-1.333l42.666,0c0.737,-0.001 1.334,0.597 1.334,1.333l0,0z" class="st29"/>
  <path fill="#c9c9c8" id="svg_26" d="m91.07,76.439c0,0.736 -0.597,1.333 -1.334,1.333l-42.666,0c-0.736,0 -1.333,-0.597 -1.333,-1.333l0,0c0,-0.736 0.597,-1.333 1.333,-1.333l42.666,0c0.737,-0.001 1.334,0.597 1.334,1.333l0,0z" class="st29"/>
  <path fill="#c9c9c8" id="svg_29" d="m69.404,82.105l-22.334,0c-0.736,0 -1.333,0.597 -1.333,1.333s0.597,1.333 1.333,1.333l22.334,0c0.737,0 1.334,-0.597 1.334,-1.333s-0.597,-1.333 -1.334,-1.333z" class="st29"/>
  <circle fill="#49a0ae" id="svg_34" r="15.25" cy="100.77" cx="92.805" class="st0"/>
  <path fill="#ffffff" id="svg_40" d="m102.666,99.172c-2.777,-2.777 -5.553,-5.553 -8.33,-8.331c-0.837,-0.837 -2.23,-0.814 -3.061,0.017c-2.777,2.776 -5.557,5.554 -8.331,8.331c-1.973,1.973 1.1,5.021 3.075,3.045c2.776,-2.777 5.555,-5.555 8.333,-8.332c-1.019,0.005 -2.041,0.011 -3.063,0.017c2.777,2.776 5.555,5.554 8.332,8.332c1.972,1.97 5.021,-1.101 3.045,-3.079l0,0z" class="st32"/>
  <line fill="#ffffff" id="svg_44" y2="110.02" y1="92.826" x2="92.812" x1="92.812" class="st32"/>
  <path fill="#ffffff" id="svg_48" d="m90.648,92.811c0,6.572 0,10.621 0,17.193c0,2.795 4.329,2.82 4.329,0.032c0,-6.574 0,-10.621 0,-17.194c0,-2.796 -4.329,-2.82 -4.329,-0.031l0,0z" class="st32"/>
  <text font-style="italic" font-weight="bold" filter="url(#svg_49_blur)" opacity="0.77" stroke="#000" transform="matrix(0.7618630048792369,0,0,0.759969651699066,17.96596710260393,6.239725801367057) " xml:space="preserve" text-anchor="start" font-family="'Courier New', Courier, monospace" font-size="24" id="svg_49" y="25.086494" x="37.429596" stroke-width="0" fill="#000000">.sol</text>
 </g>
</svg>